# MagicaVoxel @ Ephtracy

# group
o 

# material
mtllib bomb.mtl
usemtl palette

# normals
vn -1 0 0
vn 1 0 0
vn 0 0 1
vn 0 0 -1
vn 0 -1 0
vn 0 1 0

# texcoords
vt 0.412109 0.5
vt 0.958984 0.5
vt 0.974609 0.5

# verts
v -0.3 1.9 0.1
v -0.3 1.9 8.9407e-08
v -0.3 2 0.2
v -0.3 2 0.1
v -0.3 2 8.9407e-08
v -0.3 2 -0.0999999
v -0.3 2.1 0.2
v -0.3 2.1 0.1
v -0.3 2.1 8.9407e-08
v -0.3 2.1 -0.0999999
v -0.3 2.2 0.1
v -0.3 2.2 8.9407e-08
v -0.2 1.8 0.1
v -0.2 1.8 8.9407e-08
v -0.2 1.9 0.2
v -0.2 1.9 0.1
v -0.2 1.9 8.9407e-08
v -0.2 1.9 -0.0999999
v -0.2 2 0.3
v -0.2 2 0.2
v -0.2 2 0.1
v -0.2 2 8.9407e-08
v -0.2 2 -0.0999999
v -0.2 2 -0.2
v -0.2 2.1 0.3
v -0.2 2.1 0.2
v -0.2 2.1 0.1
v -0.2 2.1 8.9407e-08
v -0.2 2.1 -0.0999999
v -0.2 2.1 -0.2
v -0.2 2.2 0.2
v -0.2 2.2 0.1
v -0.2 2.2 8.9407e-08
v -0.2 2.2 -0.0999999
v -0.2 2.3 0.1
v -0.2 2.3 8.9407e-08
v -0.1 1.8 0.2
v -0.1 1.8 0.1
v -0.1 1.8 8.9407e-08
v -0.1 1.8 -0.0999999
v -0.1 1.9 0.3
v -0.1 1.9 0.2
v -0.1 1.9 0.1
v -0.1 1.9 8.9407e-08
v -0.1 1.9 -0.0999999
v -0.1 1.9 -0.2
v -0.1 2 0.3
v -0.1 2 0.2
v -0.1 2 -0.0999999
v -0.1 2 -0.2
v -0.1 2.1 0.3
v -0.1 2.1 0.2
v -0.1 2.1 -0.0999999
v -0.1 2.1 -0.2
v -0.1 2.2 0.3
v -0.1 2.2 0.2
v -0.1 2.2 0.1
v -0.1 2.2 8.9407e-08
v -0.1 2.2 -0.0999999
v -0.1 2.2 -0.2
v -0.1 2.3 0.2
v -0.1 2.3 0.1
v -0.1 2.3 8.9407e-08
v -0.1 2.3 -0.0999999
v -0.1 2.4 0.2
v -0.1 2.4 0.1
v -0.1 2.4 8.9407e-08
v -0.1 2.5 0.2
v -0.1 2.5 0.1
v -8.9407e-08 1.8 0.2
v -8.9407e-08 1.8 0.1
v -8.9407e-08 1.8 8.9407e-08
v -8.9407e-08 1.8 -0.0999999
v -8.9407e-08 1.9 0.3
v -8.9407e-08 1.9 0.2
v -8.9407e-08 1.9 0.1
v -8.9407e-08 1.9 8.9407e-08
v -8.9407e-08 1.9 -0.0999999
v -8.9407e-08 1.9 -0.2
v -8.9407e-08 2 0.3
v -8.9407e-08 2 0.2
v -8.9407e-08 2 -0.0999999
v -8.9407e-08 2 -0.2
v -8.9407e-08 2.1 0.3
v -8.9407e-08 2.1 0.2
v -8.9407e-08 2.1 -0.0999999
v -8.9407e-08 2.1 -0.2
v -8.9407e-08 2.2 0.3
v -8.9407e-08 2.2 0.2
v -8.9407e-08 2.2 0.1
v -8.9407e-08 2.2 8.9407e-08
v -8.9407e-08 2.2 -0.0999999
v -8.9407e-08 2.2 -0.2
v -8.9407e-08 2.3 0.2
v -8.9407e-08 2.3 0.1
v -8.9407e-08 2.3 8.9407e-08
v -8.9407e-08 2.3 -0.0999999
v -8.9407e-08 2.4 0.2
v -8.9407e-08 2.4 0.1
v -8.9407e-08 2.4 8.9407e-08
v -8.9407e-08 2.5 0.2
v -8.9407e-08 2.5 0.1
v 0.0999999 1.8 0.1
v 0.0999999 1.8 8.9407e-08
v 0.0999999 1.9 0.2
v 0.0999999 1.9 0.1
v 0.0999999 1.9 8.9407e-08
v 0.0999999 1.9 -0.0999999
v 0.0999999 2 0.3
v 0.0999999 2 0.2
v 0.0999999 2 0.1
v 0.0999999 2 8.9407e-08
v 0.0999999 2 -0.0999999
v 0.0999999 2 -0.2
v 0.0999999 2.1 0.3
v 0.0999999 2.1 0.2
v 0.0999999 2.1 0.1
v 0.0999999 2.1 8.9407e-08
v 0.0999999 2.1 -0.0999999
v 0.0999999 2.1 -0.2
v 0.0999999 2.2 0.2
v 0.0999999 2.2 0.1
v 0.0999999 2.2 8.9407e-08
v 0.0999999 2.2 -0.0999999
v 0.0999999 2.3 0.1
v 0.0999999 2.3 8.9407e-08
v 0.2 1.9 0.1
v 0.2 1.9 8.9407e-08
v 0.2 2 0.2
v 0.2 2 0.1
v 0.2 2 8.9407e-08
v 0.2 2 -0.0999999
v 0.2 2.1 0.2
v 0.2 2.1 0.1
v 0.2 2.1 8.9407e-08
v 0.2 2.1 -0.0999999
v 0.2 2.2 0.1
v 0.2 2.2 8.9407e-08
v -0.2 2 0.3
v -0.2 2.1 0.3
v -0.1 1.9 0.3
v -0.1 2 0.3
v -0.1 2.1 0.3
v -0.1 2.2 0.3
v -8.9407e-08 1.9 0.3
v -8.9407e-08 2 0.3
v -8.9407e-08 2.1 0.3
v -8.9407e-08 2.2 0.3
v 0.0999999 2 0.3
v 0.0999999 2.1 0.3
v -0.3 2 0.2
v -0.3 2.1 0.2
v -0.2 1.9 0.2
v -0.2 2 0.2
v -0.2 2.1 0.2
v -0.2 2.2 0.2
v -0.1 1.8 0.2
v -0.1 1.9 0.2
v -0.1 2 0.2
v -0.1 2.1 0.2
v -0.1 2.2 0.2
v -0.1 2.3 0.2
v -0.1 2.4 0.2
v -0.1 2.5 0.2
v -8.9407e-08 1.8 0.2
v -8.9407e-08 1.9 0.2
v -8.9407e-08 2 0.2
v -8.9407e-08 2.1 0.2
v -8.9407e-08 2.2 0.2
v -8.9407e-08 2.3 0.2
v -8.9407e-08 2.4 0.2
v -8.9407e-08 2.5 0.2
v 0.0999999 1.9 0.2
v 0.0999999 2 0.2
v 0.0999999 2.1 0.2
v 0.0999999 2.2 0.2
v 0.2 2 0.2
v 0.2 2.1 0.2
v -0.3 1.9 0.1
v -0.3 2 0.1
v -0.3 2.1 0.1
v -0.3 2.2 0.1
v -0.2 1.8 0.1
v -0.2 1.9 0.1
v -0.2 2 0.1
v -0.2 2.1 0.1
v -0.2 2.2 0.1
v -0.2 2.3 0.1
v -0.1 1.8 0.1
v -0.1 1.9 0.1
v -0.1 2.2 0.1
v -0.1 2.3 0.1
v -0.1 2.4 0.1
v -8.9407e-08 1.8 0.1
v -8.9407e-08 1.9 0.1
v -8.9407e-08 2.2 0.1
v -8.9407e-08 2.3 0.1
v -8.9407e-08 2.4 0.1
v 0.0999999 1.8 0.1
v 0.0999999 1.9 0.1
v 0.0999999 2 0.1
v 0.0999999 2.1 0.1
v 0.0999999 2.2 0.1
v 0.0999999 2.3 0.1
v 0.2 1.9 0.1
v 0.2 2 0.1
v 0.2 2.1 0.1
v 0.2 2.2 0.1
v -0.1 2.4 0.1
v -0.1 2.5 0.1
v -8.9407e-08 2.4 0.1
v -8.9407e-08 2.5 0.1
v -0.3 1.9 8.9407e-08
v -0.3 2 8.9407e-08
v -0.3 2.1 8.9407e-08
v -0.3 2.2 8.9407e-08
v -0.2 1.8 8.9407e-08
v -0.2 1.9 8.9407e-08
v -0.2 2 8.9407e-08
v -0.2 2.1 8.9407e-08
v -0.2 2.2 8.9407e-08
v -0.2 2.3 8.9407e-08
v -0.1 1.8 8.9407e-08
v -0.1 1.9 8.9407e-08
v -0.1 2.2 8.9407e-08
v -0.1 2.3 8.9407e-08
v -0.1 2.4 8.9407e-08
v -8.9407e-08 1.8 8.9407e-08
v -8.9407e-08 1.9 8.9407e-08
v -8.9407e-08 2.2 8.9407e-08
v -8.9407e-08 2.3 8.9407e-08
v -8.9407e-08 2.4 8.9407e-08
v 0.0999999 1.8 8.9407e-08
v 0.0999999 1.9 8.9407e-08
v 0.0999999 2 8.9407e-08
v 0.0999999 2.1 8.9407e-08
v 0.0999999 2.2 8.9407e-08
v 0.0999999 2.3 8.9407e-08
v 0.2 1.9 8.9407e-08
v 0.2 2 8.9407e-08
v 0.2 2.1 8.9407e-08
v 0.2 2.2 8.9407e-08
v -0.3 2 -0.0999999
v -0.3 2.1 -0.0999999
v -0.2 1.9 -0.0999999
v -0.2 2 -0.0999999
v -0.2 2.1 -0.0999999
v -0.2 2.2 -0.0999999
v -0.1 1.8 -0.0999999
v -0.1 1.9 -0.0999999
v -0.1 2 -0.0999999
v -0.1 2.1 -0.0999999
v -0.1 2.2 -0.0999999
v -0.1 2.3 -0.0999999
v -8.9407e-08 1.8 -0.0999999
v -8.9407e-08 1.9 -0.0999999
v -8.9407e-08 2 -0.0999999
v -8.9407e-08 2.1 -0.0999999
v -8.9407e-08 2.2 -0.0999999
v -8.9407e-08 2.3 -0.0999999
v 0.0999999 1.9 -0.0999999
v 0.0999999 2 -0.0999999
v 0.0999999 2.1 -0.0999999
v 0.0999999 2.2 -0.0999999
v 0.2 2 -0.0999999
v 0.2 2.1 -0.0999999
v -0.2 2 -0.2
v -0.2 2.1 -0.2
v -0.1 1.9 -0.2
v -0.1 2 -0.2
v -0.1 2.1 -0.2
v -0.1 2.2 -0.2
v -8.9407e-08 1.9 -0.2
v -8.9407e-08 2 -0.2
v -8.9407e-08 2.1 -0.2
v -8.9407e-08 2.2 -0.2
v 0.0999999 2 -0.2
v 0.0999999 2.1 -0.2
v -0.1 1.8 0.2
v -8.9407e-08 1.8 0.2
v -0.2 1.8 0.1
v -0.1 1.8 0.1
v -8.9407e-08 1.8 0.1
v 0.0999999 1.8 0.1
v -0.2 1.8 8.9407e-08
v -0.1 1.8 8.9407e-08
v -8.9407e-08 1.8 8.9407e-08
v 0.0999999 1.8 8.9407e-08
v -0.1 1.8 -0.0999999
v -8.9407e-08 1.8 -0.0999999
v -0.1 1.9 0.3
v -8.9407e-08 1.9 0.3
v -0.2 1.9 0.2
v -0.1 1.9 0.2
v -8.9407e-08 1.9 0.2
v 0.0999999 1.9 0.2
v -0.3 1.9 0.1
v -0.2 1.9 0.1
v -0.1 1.9 0.1
v -8.9407e-08 1.9 0.1
v 0.0999999 1.9 0.1
v 0.2 1.9 0.1
v -0.3 1.9 8.9407e-08
v -0.2 1.9 8.9407e-08
v -0.1 1.9 8.9407e-08
v -8.9407e-08 1.9 8.9407e-08
v 0.0999999 1.9 8.9407e-08
v 0.2 1.9 8.9407e-08
v -0.2 1.9 -0.0999999
v -0.1 1.9 -0.0999999
v -8.9407e-08 1.9 -0.0999999
v 0.0999999 1.9 -0.0999999
v -0.1 1.9 -0.2
v -8.9407e-08 1.9 -0.2
v -0.2 2 0.3
v -0.1 2 0.3
v -8.9407e-08 2 0.3
v 0.0999999 2 0.3
v -0.3 2 0.2
v -0.2 2 0.2
v -0.1 2 0.2
v -8.9407e-08 2 0.2
v 0.0999999 2 0.2
v 0.2 2 0.2
v -0.3 2 0.1
v -0.2 2 0.1
v 0.0999999 2 0.1
v 0.2 2 0.1
v -0.3 2 8.9407e-08
v -0.2 2 8.9407e-08
v 0.0999999 2 8.9407e-08
v 0.2 2 8.9407e-08
v -0.3 2 -0.0999999
v -0.2 2 -0.0999999
v -0.1 2 -0.0999999
v -8.9407e-08 2 -0.0999999
v 0.0999999 2 -0.0999999
v 0.2 2 -0.0999999
v -0.2 2 -0.2
v -0.1 2 -0.2
v -8.9407e-08 2 -0.2
v 0.0999999 2 -0.2
v -0.1 2.4 0.2
v -8.9407e-08 2.4 0.2
v -0.1 2.4 0.1
v -8.9407e-08 2.4 0.1
v -0.2 2.1 0.3
v -0.1 2.1 0.3
v -8.9407e-08 2.1 0.3
v 0.0999999 2.1 0.3
v -0.3 2.1 0.2
v -0.2 2.1 0.2
v -0.1 2.1 0.2
v -8.9407e-08 2.1 0.2
v 0.0999999 2.1 0.2
v 0.2 2.1 0.2
v -0.3 2.1 0.1
v -0.2 2.1 0.1
v 0.0999999 2.1 0.1
v 0.2 2.1 0.1
v -0.3 2.1 8.9407e-08
v -0.2 2.1 8.9407e-08
v 0.0999999 2.1 8.9407e-08
v 0.2 2.1 8.9407e-08
v -0.3 2.1 -0.0999999
v -0.2 2.1 -0.0999999
v -0.1 2.1 -0.0999999
v -8.9407e-08 2.1 -0.0999999
v 0.0999999 2.1 -0.0999999
v 0.2 2.1 -0.0999999
v -0.2 2.1 -0.2
v -0.1 2.1 -0.2
v -8.9407e-08 2.1 -0.2
v 0.0999999 2.1 -0.2
v -0.1 2.2 0.3
v -8.9407e-08 2.2 0.3
v -0.2 2.2 0.2
v -0.1 2.2 0.2
v -8.9407e-08 2.2 0.2
v 0.0999999 2.2 0.2
v -0.3 2.2 0.1
v -0.2 2.2 0.1
v -0.1 2.2 0.1
v -8.9407e-08 2.2 0.1
v 0.0999999 2.2 0.1
v 0.2 2.2 0.1
v -0.3 2.2 8.9407e-08
v -0.2 2.2 8.9407e-08
v -0.1 2.2 8.9407e-08
v -8.9407e-08 2.2 8.9407e-08
v 0.0999999 2.2 8.9407e-08
v 0.2 2.2 8.9407e-08
v -0.2 2.2 -0.0999999
v -0.1 2.2 -0.0999999
v -8.9407e-08 2.2 -0.0999999
v 0.0999999 2.2 -0.0999999
v -0.1 2.2 -0.2
v -8.9407e-08 2.2 -0.2
v -0.1 2.3 0.2
v -8.9407e-08 2.3 0.2
v -0.2 2.3 0.1
v -0.1 2.3 0.1
v -8.9407e-08 2.3 0.1
v 0.0999999 2.3 0.1
v -0.2 2.3 8.9407e-08
v -0.1 2.3 8.9407e-08
v -8.9407e-08 2.3 8.9407e-08
v 0.0999999 2.3 8.9407e-08
v -0.1 2.3 -0.0999999
v -8.9407e-08 2.3 -0.0999999
v -0.1 2.4 0.1
v -8.9407e-08 2.4 0.1
v -0.1 2.4 8.9407e-08
v -8.9407e-08 2.4 8.9407e-08
v -0.1 2.5 0.2
v -8.9407e-08 2.5 0.2
v -0.1 2.5 0.1
v -8.9407e-08 2.5 0.1

# faces
f 4/3/1 2/3/1 1/3/1
f 5/3/1 2/3/1 4/3/1
f 7/3/1 4/3/1 3/3/1
f 7/3/1 6/3/1 5/3/1
f 7/3/1 5/3/1 4/3/1
f 8/3/1 6/3/1 7/3/1
f 9/3/1 6/3/1 8/3/1
f 10/3/1 6/3/1 9/3/1
f 11/3/1 9/3/1 8/3/1
f 12/3/1 9/3/1 11/3/1
f 16/3/1 14/3/1 13/3/1
f 17/3/1 14/3/1 16/3/1
f 20/3/1 16/3/1 15/3/1
f 21/3/1 16/3/1 20/3/1
f 22/3/1 18/3/1 17/3/1
f 23/3/1 18/3/1 22/3/1
f 25/3/1 20/3/1 19/3/1
f 26/3/1 20/3/1 25/3/1
f 29/3/1 24/3/1 23/3/1
f 30/3/1 24/3/1 29/3/1
f 31/3/1 27/3/1 26/3/1
f 32/3/1 27/3/1 31/3/1
f 33/3/1 29/3/1 28/3/1
f 34/3/1 29/3/1 33/3/1
f 35/3/1 33/3/1 32/3/1
f 36/3/1 33/3/1 35/3/1
f 42/3/1 38/3/1 37/3/1
f 43/3/1 38/3/1 42/3/1
f 44/3/1 40/3/1 39/3/1
f 45/3/1 40/3/1 44/3/1
f 47/3/1 42/3/1 41/3/1
f 48/3/1 42/3/1 47/3/1
f 49/3/1 46/3/1 45/3/1
f 50/3/1 46/3/1 49/3/1
f 55/3/1 52/3/1 51/3/1
f 56/3/1 52/3/1 55/3/1
f 59/3/1 54/3/1 53/3/1
f 60/3/1 54/3/1 59/3/1
f 61/3/1 57/3/1 56/3/1
f 62/3/1 57/3/1 61/3/1
f 63/3/1 59/3/1 58/3/1
f 64/3/1 59/3/1 63/3/1
f 66/1/1 63/1/1 62/1/1
f 67/1/1 63/1/1 66/1/1
f 68/1/1 66/1/1 65/1/1
f 69/1/1 66/1/1 68/1/1
f 70/3/2 71/3/2 75/3/2
f 75/3/2 71/3/2 76/3/2
f 72/3/2 73/3/2 77/3/2
f 77/3/2 73/3/2 78/3/2
f 74/3/2 75/3/2 80/3/2
f 80/3/2 75/3/2 81/3/2
f 78/3/2 79/3/2 82/3/2
f 82/3/2 79/3/2 83/3/2
f 84/3/2 85/3/2 88/3/2
f 88/3/2 85/3/2 89/3/2
f 86/3/2 87/3/2 92/3/2
f 92/3/2 87/3/2 93/3/2
f 89/3/2 90/3/2 94/3/2
f 94/3/2 90/3/2 95/3/2
f 91/3/2 92/3/2 96/3/2
f 96/3/2 92/3/2 97/3/2
f 95/1/2 96/1/2 99/1/2
f 99/1/2 96/1/2 100/1/2
f 98/1/2 99/1/2 101/1/2
f 101/1/2 99/1/2 102/1/2
f 103/3/2 104/3/2 106/3/2
f 106/3/2 104/3/2 107/3/2
f 105/3/2 106/3/2 110/3/2
f 110/3/2 106/3/2 111/3/2
f 107/3/2 108/3/2 112/3/2
f 112/3/2 108/3/2 113/3/2
f 109/3/2 110/3/2 115/3/2
f 115/3/2 110/3/2 116/3/2
f 113/3/2 114/3/2 119/3/2
f 119/3/2 114/3/2 120/3/2
f 116/3/2 117/3/2 121/3/2
f 121/3/2 117/3/2 122/3/2
f 118/3/2 119/3/2 123/3/2
f 123/3/2 119/3/2 124/3/2
f 122/3/2 123/3/2 125/3/2
f 125/3/2 123/3/2 126/3/2
f 127/3/2 128/3/2 130/3/2
f 130/3/2 128/3/2 131/3/2
f 129/3/2 130/3/2 133/3/2
f 131/3/2 132/3/2 133/3/2
f 130/3/2 131/3/2 133/3/2
f 133/3/2 132/3/2 134/3/2
f 134/3/2 132/3/2 135/3/2
f 135/3/2 132/3/2 136/3/2
f 134/3/2 135/3/2 137/3/2
f 137/3/2 135/3/2 138/3/2
f 142/3/3 140/3/3 139/3/3
f 143/3/3 140/3/3 142/3/3
f 145/3/3 142/3/3 141/3/3
f 145/3/3 144/3/3 143/3/3
f 145/3/3 143/3/3 142/3/3
f 146/3/3 144/3/3 145/3/3
f 147/3/3 144/3/3 146/3/3
f 148/3/3 144/3/3 147/3/3
f 149/3/3 147/3/3 146/3/3
f 150/3/3 147/3/3 149/3/3
f 154/3/3 152/3/3 151/3/3
f 155/3/3 152/3/3 154/3/3
f 158/3/3 154/3/3 153/3/3
f 159/3/3 154/3/3 158/3/3
f 160/3/3 156/3/3 155/3/3
f 161/3/3 156/3/3 160/3/3
f 165/3/3 158/3/3 157/3/3
f 166/3/3 158/3/3 165/3/3
f 169/3/3 162/3/3 161/3/3
f 170/3/3 162/3/3 169/3/3
f 171/1/3 164/1/3 163/1/3
f 172/1/3 164/1/3 171/1/3
f 173/3/3 167/3/3 166/3/3
f 174/3/3 167/3/3 173/3/3
f 175/3/3 169/3/3 168/3/3
f 176/3/3 169/3/3 175/3/3
f 177/3/3 175/3/3 174/3/3
f 178/3/3 175/3/3 177/3/3
f 184/3/3 180/3/3 179/3/3
f 185/3/3 180/3/3 184/3/3
f 186/3/3 182/3/3 181/3/3
f 187/3/3 182/3/3 186/3/3
f 189/3/3 184/3/3 183/3/3
f 190/3/3 184/3/3 189/3/3
f 191/3/3 188/3/3 187/3/3
f 192/3/3 188/3/3 191/3/3
f 197/1/3 193/1/3 192/1/3
f 198/1/3 193/1/3 197/1/3
f 199/3/3 195/3/3 194/3/3
f 200/3/3 195/3/3 199/3/3
f 203/3/3 197/3/3 196/3/3
f 204/3/3 197/3/3 203/3/3
f 205/3/3 201/3/3 200/3/3
f 206/3/3 201/3/3 205/3/3
f 207/3/3 203/3/3 202/3/3
f 208/3/3 203/3/3 207/3/3
f 209/1/4 210/1/4 211/1/4
f 211/1/4 210/1/4 212/1/4
f 213/3/4 214/3/4 218/3/4
f 218/3/4 214/3/4 219/3/4
f 215/3/4 216/3/4 220/3/4
f 220/3/4 216/3/4 221/3/4
f 217/3/4 218/3/4 223/3/4
f 223/3/4 218/3/4 224/3/4
f 221/3/4 222/3/4 225/3/4
f 225/3/4 222/3/4 226/3/4
f 226/1/4 227/1/4 231/1/4
f 231/1/4 227/1/4 232/1/4
f 228/3/4 229/3/4 233/3/4
f 233/3/4 229/3/4 234/3/4
f 230/3/4 231/3/4 237/3/4
f 237/3/4 231/3/4 238/3/4
f 234/3/4 235/3/4 239/3/4
f 239/3/4 235/3/4 240/3/4
f 236/3/4 237/3/4 241/3/4
f 241/3/4 237/3/4 242/3/4
f 243/3/4 244/3/4 246/3/4
f 246/3/4 244/3/4 247/3/4
f 245/3/4 246/3/4 250/3/4
f 250/3/4 246/3/4 251/3/4
f 247/3/4 248/3/4 252/3/4
f 252/3/4 248/3/4 253/3/4
f 249/3/4 250/3/4 255/3/4
f 255/3/4 250/3/4 256/3/4
f 253/3/4 254/3/4 259/3/4
f 259/3/4 254/3/4 260/3/4
f 256/3/4 257/3/4 261/3/4
f 261/3/4 257/3/4 262/3/4
f 258/3/4 259/3/4 263/3/4
f 263/3/4 259/3/4 264/3/4
f 262/3/4 263/3/4 265/3/4
f 265/3/4 263/3/4 266/3/4
f 267/3/4 268/3/4 270/3/4
f 270/3/4 268/3/4 271/3/4
f 269/3/4 270/3/4 273/3/4
f 271/3/4 272/3/4 273/3/4
f 270/3/4 271/3/4 273/3/4
f 273/3/4 272/3/4 274/3/4
f 274/3/4 272/3/4 275/3/4
f 275/3/4 272/3/4 276/3/4
f 274/3/4 275/3/4 277/3/4
f 277/3/4 275/3/4 278/3/4
f 282/3/5 280/3/5 279/3/5
f 283/3/5 280/3/5 282/3/5
f 285/3/5 282/3/5 281/3/5
f 285/3/5 284/3/5 283/3/5
f 285/3/5 283/3/5 282/3/5
f 286/3/5 284/3/5 285/3/5
f 287/3/5 284/3/5 286/3/5
f 288/3/5 284/3/5 287/3/5
f 289/3/5 287/3/5 286/3/5
f 290/3/5 287/3/5 289/3/5
f 294/3/5 292/3/5 291/3/5
f 295/3/5 292/3/5 294/3/5
f 298/3/5 294/3/5 293/3/5
f 299/3/5 294/3/5 298/3/5
f 300/3/5 296/3/5 295/3/5
f 301/3/5 296/3/5 300/3/5
f 303/3/5 298/3/5 297/3/5
f 304/3/5 298/3/5 303/3/5
f 307/3/5 302/3/5 301/3/5
f 308/3/5 302/3/5 307/3/5
f 309/3/5 305/3/5 304/3/5
f 310/3/5 305/3/5 309/3/5
f 311/3/5 307/3/5 306/3/5
f 312/3/5 307/3/5 311/3/5
f 313/3/5 311/3/5 310/3/5
f 314/3/5 311/3/5 313/3/5
f 320/3/5 316/3/5 315/3/5
f 321/3/5 316/3/5 320/3/5
f 322/3/5 318/3/5 317/3/5
f 323/3/5 318/3/5 322/3/5
f 325/3/5 320/3/5 319/3/5
f 326/3/5 320/3/5 325/3/5
f 327/3/5 324/3/5 323/3/5
f 328/3/5 324/3/5 327/3/5
f 333/3/5 330/3/5 329/3/5
f 334/3/5 330/3/5 333/3/5
f 337/3/5 332/3/5 331/3/5
f 338/3/5 332/3/5 337/3/5
f 339/3/5 335/3/5 334/3/5
f 340/3/5 335/3/5 339/3/5
f 341/3/5 337/3/5 336/3/5
f 342/3/5 337/3/5 341/3/5
f 345/1/5 344/1/5 343/1/5
f 346/1/5 344/1/5 345/1/5
f 347/3/6 348/3/6 352/3/6
f 352/3/6 348/3/6 353/3/6
f 349/3/6 350/3/6 354/3/6
f 354/3/6 350/3/6 355/3/6
f 351/3/6 352/3/6 357/3/6
f 357/3/6 352/3/6 358/3/6
f 355/3/6 356/3/6 359/3/6
f 359/3/6 356/3/6 360/3/6
f 361/3/6 362/3/6 365/3/6
f 365/3/6 362/3/6 366/3/6
f 363/3/6 364/3/6 369/3/6
f 369/3/6 364/3/6 370/3/6
f 366/3/6 367/3/6 371/3/6
f 371/3/6 367/3/6 372/3/6
f 368/3/6 369/3/6 373/3/6
f 373/3/6 369/3/6 374/3/6
f 375/3/6 376/3/6 378/3/6
f 378/3/6 376/3/6 379/3/6
f 377/3/6 378/3/6 382/3/6
f 382/3/6 378/3/6 383/3/6
f 379/3/6 380/3/6 384/3/6
f 384/3/6 380/3/6 385/3/6
f 381/3/6 382/3/6 387/3/6
f 387/3/6 382/3/6 388/3/6
f 385/3/6 386/3/6 391/3/6
f 391/3/6 386/3/6 392/3/6
f 388/3/6 389/3/6 393/3/6
f 393/3/6 389/3/6 394/3/6
f 390/3/6 391/3/6 395/3/6
f 395/3/6 391/3/6 396/3/6
f 394/3/6 395/3/6 397/3/6
f 397/3/6 395/3/6 398/3/6
f 399/3/6 400/3/6 402/3/6
f 402/3/6 400/3/6 403/3/6
f 401/3/6 402/3/6 405/3/6
f 405/3/6 402/3/6 406/3/6
f 403/3/6 404/3/6 407/3/6
f 407/3/6 404/3/6 408/3/6
f 406/3/6 407/3/6 409/3/6
f 409/3/6 407/3/6 410/3/6
f 411/1/6 412/1/6 413/1/6
f 413/1/6 412/1/6 414/1/6
f 415/1/6 416/1/6 417/1/6
f 417/1/6 416/1/6 418/1/6
