# MagicaVoxel @ Ephtracy

# group
o 

# material
mtllib bottle.mtl
usemtl palette

# normals
vn -1 0 0
vn 1 0 0
vn 0 0 1
vn 0 0 -1
vn 0 -1 0
vn 0 1 0

# texcoords
vt 0.279297 0.5
vt 0.931641 0.5
vt 0.935547 0.5

# verts
v -0.3 0 0.2
v -0.3 0 -0.0999999
v -0.3 0.3 0.2
v -0.3 0.3 -0.0999999
v -0.3 0.4 0.2
v -0.3 0.4 -0.0999999
v -0.3 0.5 0.2
v -0.3 0.5 -0.0999999
v -0.3 0.6 0.2
v -0.3 0.6 -0.0999999
v -0.3 0.8 0.2
v -0.3 0.8 -0.0999999
v -0.2 0 0.3
v -0.2 0 0.2
v -0.2 0 -0.0999999
v -0.2 0 -0.2
v -0.2 0.3 0.3
v -0.2 0.3 0.2
v -0.2 0.3 -0.0999999
v -0.2 0.3 -0.2
v -0.2 0.4 0.3
v -0.2 0.4 0.2
v -0.2 0.4 -0.0999999
v -0.2 0.4 -0.2
v -0.2 0.5 0.3
v -0.2 0.5 0.2
v -0.2 0.5 -0.0999999
v -0.2 0.5 -0.2
v -0.2 0.6 0.3
v -0.2 0.6 0.2
v -0.2 0.6 -0.0999999
v -0.2 0.6 -0.2
v -0.2 0.8 0.3
v -0.2 0.8 0.2
v -0.2 0.8 -0.0999999
v -0.2 0.8 -0.2
v 0.0999999 0.5 0.2
v 0.0999999 0.5 -0.0999999
v 0.0999999 0.6 0.2
v 0.0999999 0.6 -0.0999999
v 0.0999999 0.8 0.2
v 0.0999999 0.8 -0.0999999
v -0.2 0.5 0.2
v -0.2 0.5 -0.0999999
v -0.2 0.6 0.2
v -0.2 0.6 -0.0999999
v -0.2 0.8 0.2
v -0.2 0.8 -0.0999999
v 0.0999999 0 0.3
v 0.0999999 0 0.2
v 0.0999999 0 -0.0999999
v 0.0999999 0 -0.2
v 0.0999999 0.3 0.3
v 0.0999999 0.3 0.2
v 0.0999999 0.3 -0.0999999
v 0.0999999 0.3 -0.2
v 0.0999999 0.4 0.3
v 0.0999999 0.4 0.2
v 0.0999999 0.4 -0.0999999
v 0.0999999 0.4 -0.2
v 0.0999999 0.5 0.3
v 0.0999999 0.5 0.2
v 0.0999999 0.5 -0.0999999
v 0.0999999 0.5 -0.2
v 0.0999999 0.6 0.3
v 0.0999999 0.6 0.2
v 0.0999999 0.6 -0.0999999
v 0.0999999 0.6 -0.2
v 0.0999999 0.8 0.3
v 0.0999999 0.8 0.2
v 0.0999999 0.8 -0.0999999
v 0.0999999 0.8 -0.2
v 0.2 0 0.2
v 0.2 0 -0.0999999
v 0.2 0.3 0.2
v 0.2 0.3 -0.0999999
v 0.2 0.4 0.2
v 0.2 0.4 -0.0999999
v 0.2 0.5 0.2
v 0.2 0.5 -0.0999999
v 0.2 0.6 0.2
v 0.2 0.6 -0.0999999
v 0.2 0.8 0.2
v 0.2 0.8 -0.0999999
v -0.2 0 0.3
v -0.2 0.3 0.3
v -0.2 0.4 0.3
v -0.2 0.5 0.3
v -0.2 0.6 0.3
v -0.2 0.8 0.3
v 0.0999999 0 0.3
v 0.0999999 0.3 0.3
v 0.0999999 0.4 0.3
v 0.0999999 0.5 0.3
v 0.0999999 0.6 0.3
v 0.0999999 0.8 0.3
v -0.3 0 0.2
v -0.3 0.3 0.2
v -0.3 0.4 0.2
v -0.3 0.5 0.2
v -0.3 0.6 0.2
v -0.3 0.8 0.2
v -0.2 0 0.2
v -0.2 0.3 0.2
v -0.2 0.4 0.2
v -0.2 0.5 0.2
v -0.2 0.6 0.2
v -0.2 0.8 0.2
v 0.0999999 0 0.2
v 0.0999999 0.3 0.2
v 0.0999999 0.4 0.2
v 0.0999999 0.5 0.2
v 0.0999999 0.6 0.2
v 0.0999999 0.8 0.2
v 0.2 0 0.2
v 0.2 0.3 0.2
v 0.2 0.4 0.2
v 0.2 0.5 0.2
v 0.2 0.6 0.2
v 0.2 0.8 0.2
v -0.2 0.5 -0.0999999
v -0.2 0.6 -0.0999999
v -0.2 0.8 -0.0999999
v 0.0999999 0.5 -0.0999999
v 0.0999999 0.6 -0.0999999
v 0.0999999 0.8 -0.0999999
v -0.2 0.5 0.2
v -0.2 0.6 0.2
v -0.2 0.8 0.2
v 0.0999999 0.5 0.2
v 0.0999999 0.6 0.2
v 0.0999999 0.8 0.2
v -0.3 0 -0.0999999
v -0.3 0.3 -0.0999999
v -0.3 0.4 -0.0999999
v -0.3 0.5 -0.0999999
v -0.3 0.6 -0.0999999
v -0.3 0.8 -0.0999999
v -0.2 0 -0.0999999
v -0.2 0.3 -0.0999999
v -0.2 0.4 -0.0999999
v -0.2 0.5 -0.0999999
v -0.2 0.6 -0.0999999
v -0.2 0.8 -0.0999999
v 0.0999999 0 -0.0999999
v 0.0999999 0.3 -0.0999999
v 0.0999999 0.4 -0.0999999
v 0.0999999 0.5 -0.0999999
v 0.0999999 0.6 -0.0999999
v 0.0999999 0.8 -0.0999999
v 0.2 0 -0.0999999
v 0.2 0.3 -0.0999999
v 0.2 0.4 -0.0999999
v 0.2 0.5 -0.0999999
v 0.2 0.6 -0.0999999
v 0.2 0.8 -0.0999999
v -0.2 0 -0.2
v -0.2 0.3 -0.2
v -0.2 0.4 -0.2
v -0.2 0.5 -0.2
v -0.2 0.6 -0.2
v -0.2 0.8 -0.2
v 0.0999999 0 -0.2
v 0.0999999 0.3 -0.2
v 0.0999999 0.4 -0.2
v 0.0999999 0.5 -0.2
v 0.0999999 0.6 -0.2
v 0.0999999 0.8 -0.2
v -0.2 0 0.3
v 0.0999999 0 0.3
v -0.3 0 0.2
v -0.2 0 0.2
v 0.0999999 0 0.2
v 0.2 0 0.2
v -0.3 0 -0.0999999
v -0.2 0 -0.0999999
v 0.0999999 0 -0.0999999
v 0.2 0 -0.0999999
v -0.2 0 -0.2
v 0.0999999 0 -0.2
v -0.2 0.5 0.2
v 0.0999999 0.5 0.2
v -0.2 0.5 -0.0999999
v 0.0999999 0.5 -0.0999999
v -0.2 0.8 0.3
v 0.0999999 0.8 0.3
v -0.3 0.8 0.2
v -0.2 0.8 0.2
v 0.0999999 0.8 0.2
v 0.2 0.8 0.2
v -0.3 0.8 -0.0999999
v -0.2 0.8 -0.0999999
v 0.0999999 0.8 -0.0999999
v 0.2 0.8 -0.0999999
v -0.2 0.8 -0.2
v 0.0999999 0.8 -0.2

# faces
f 3/2/1 2/2/1 1/2/1
f 4/2/1 2/2/1 3/2/1
f 5/3/1 4/3/1 3/3/1
f 6/3/1 4/3/1 5/3/1
f 7/2/1 6/2/1 5/2/1
f 8/2/1 6/2/1 7/2/1
f 9/3/1 8/3/1 7/3/1
f 10/3/1 8/3/1 9/3/1
f 11/2/1 10/2/1 9/2/1
f 12/2/1 10/2/1 11/2/1
f 17/2/1 14/2/1 13/2/1
f 18/2/1 14/2/1 17/2/1
f 19/2/1 16/2/1 15/2/1
f 20/2/1 16/2/1 19/2/1
f 21/3/1 18/3/1 17/3/1
f 22/3/1 18/3/1 21/3/1
f 23/3/1 20/3/1 19/3/1
f 24/3/1 20/3/1 23/3/1
f 25/2/1 22/2/1 21/2/1
f 26/2/1 22/2/1 25/2/1
f 27/2/1 24/2/1 23/2/1
f 28/2/1 24/2/1 27/2/1
f 29/3/1 26/3/1 25/3/1
f 30/3/1 26/3/1 29/3/1
f 31/3/1 28/3/1 27/3/1
f 32/3/1 28/3/1 31/3/1
f 33/2/1 30/2/1 29/2/1
f 34/2/1 30/2/1 33/2/1
f 35/2/1 32/2/1 31/2/1
f 36/2/1 32/2/1 35/2/1
f 39/3/1 38/3/1 37/3/1
f 40/3/1 38/3/1 39/3/1
f 41/2/1 40/2/1 39/2/1
f 42/2/1 40/2/1 41/2/1
f 43/3/2 44/3/2 45/3/2
f 45/3/2 44/3/2 46/3/2
f 45/2/2 46/2/2 47/2/2
f 47/2/2 46/2/2 48/2/2
f 49/2/2 50/2/2 53/2/2
f 53/2/2 50/2/2 54/2/2
f 51/2/2 52/2/2 55/2/2
f 55/2/2 52/2/2 56/2/2
f 53/3/2 54/3/2 57/3/2
f 57/3/2 54/3/2 58/3/2
f 55/3/2 56/3/2 59/3/2
f 59/3/2 56/3/2 60/3/2
f 57/2/2 58/2/2 61/2/2
f 61/2/2 58/2/2 62/2/2
f 59/2/2 60/2/2 63/2/2
f 63/2/2 60/2/2 64/2/2
f 61/3/2 62/3/2 65/3/2
f 65/3/2 62/3/2 66/3/2
f 63/3/2 64/3/2 67/3/2
f 67/3/2 64/3/2 68/3/2
f 65/2/2 66/2/2 69/2/2
f 69/2/2 66/2/2 70/2/2
f 67/2/2 68/2/2 71/2/2
f 71/2/2 68/2/2 72/2/2
f 73/2/2 74/2/2 75/2/2
f 75/2/2 74/2/2 76/2/2
f 75/3/2 76/3/2 77/3/2
f 77/3/2 76/3/2 78/3/2
f 77/2/2 78/2/2 79/2/2
f 79/2/2 78/2/2 80/2/2
f 79/3/2 80/3/2 81/3/2
f 81/3/2 80/3/2 82/3/2
f 81/2/2 82/2/2 83/2/2
f 83/2/2 82/2/2 84/2/2
f 91/2/3 86/2/3 85/2/3
f 92/3/3 87/3/3 86/3/3
f 92/2/3 86/2/3 91/2/3
f 93/2/3 88/2/3 87/2/3
f 93/3/3 87/3/3 92/3/3
f 94/3/3 89/3/3 88/3/3
f 94/2/3 88/2/3 93/2/3
f 95/2/3 90/2/3 89/2/3
f 95/3/3 89/3/3 94/3/3
f 96/2/3 90/2/3 95/2/3
f 103/2/3 98/2/3 97/2/3
f 104/3/3 99/3/3 98/3/3
f 104/2/3 98/2/3 103/2/3
f 105/2/3 100/2/3 99/2/3
f 105/3/3 99/3/3 104/3/3
f 106/3/3 101/3/3 100/3/3
f 106/2/3 100/2/3 105/2/3
f 107/2/3 102/2/3 101/2/3
f 107/3/3 101/3/3 106/3/3
f 108/2/3 102/2/3 107/2/3
f 115/2/3 110/2/3 109/2/3
f 116/3/3 111/3/3 110/3/3
f 116/2/3 110/2/3 115/2/3
f 117/2/3 112/2/3 111/2/3
f 117/3/3 111/3/3 116/3/3
f 118/3/3 113/3/3 112/3/3
f 118/2/3 112/2/3 117/2/3
f 119/2/3 114/2/3 113/2/3
f 119/3/3 113/3/3 118/3/3
f 120/2/3 114/2/3 119/2/3
f 124/3/3 122/3/3 121/3/3
f 125/2/3 123/2/3 122/2/3
f 125/3/3 122/3/3 124/3/3
f 126/2/3 123/2/3 125/2/3
f 127/3/4 128/3/4 130/3/4
f 128/2/4 129/2/4 131/2/4
f 130/3/4 128/3/4 131/3/4
f 131/2/4 129/2/4 132/2/4
f 133/2/4 134/2/4 139/2/4
f 134/3/4 135/3/4 140/3/4
f 139/2/4 134/2/4 140/2/4
f 135/2/4 136/2/4 141/2/4
f 140/3/4 135/3/4 141/3/4
f 136/3/4 137/3/4 142/3/4
f 141/2/4 136/2/4 142/2/4
f 137/2/4 138/2/4 143/2/4
f 142/3/4 137/3/4 143/3/4
f 143/2/4 138/2/4 144/2/4
f 145/2/4 146/2/4 151/2/4
f 146/3/4 147/3/4 152/3/4
f 151/2/4 146/2/4 152/2/4
f 147/2/4 148/2/4 153/2/4
f 152/3/4 147/3/4 153/3/4
f 148/3/4 149/3/4 154/3/4
f 153/2/4 148/2/4 154/2/4
f 149/2/4 150/2/4 155/2/4
f 154/3/4 149/3/4 155/3/4
f 155/2/4 150/2/4 156/2/4
f 157/2/4 158/2/4 163/2/4
f 158/3/4 159/3/4 164/3/4
f 163/2/4 158/2/4 164/2/4
f 159/2/4 160/2/4 165/2/4
f 164/3/4 159/3/4 165/3/4
f 160/3/4 161/3/4 166/3/4
f 165/2/4 160/2/4 166/2/4
f 161/2/4 162/2/4 167/2/4
f 166/3/4 161/3/4 167/3/4
f 167/2/4 162/2/4 168/2/4
f 172/2/5 170/2/5 169/2/5
f 173/2/5 170/2/5 172/2/5
f 175/2/5 172/2/5 171/2/5
f 175/2/5 174/2/5 173/2/5
f 175/2/5 173/2/5 172/2/5
f 176/2/5 174/2/5 175/2/5
f 177/2/5 174/2/5 176/2/5
f 178/2/5 174/2/5 177/2/5
f 179/2/5 177/2/5 176/2/5
f 180/2/5 177/2/5 179/2/5
f 181/1/6 182/1/6 183/1/6
f 183/1/6 182/1/6 184/1/6
f 185/2/6 186/2/6 188/2/6
f 188/2/6 186/2/6 189/2/6
f 187/2/6 188/2/6 191/2/6
f 191/2/6 188/2/6 192/2/6
f 189/2/6 190/2/6 193/2/6
f 193/2/6 190/2/6 194/2/6
f 192/2/6 193/2/6 195/2/6
f 195/2/6 193/2/6 196/2/6
