# MagicaVoxel @ Ephtracy

# group
o 

# material
mtllib revolver.mtl
usemtl palette

# normals
vn -1 0 0
vn 1 0 0
vn 0 0 1
vn 0 0 -1
vn 0 -1 0
vn 0 1 0

# texcoords
vt 0.271484 0.5
vt 0.392578 0.5
vt 0.923828 0.5
vt 0.935547 0.5

# verts
v -0.2 2.1 0.1
v -0.2 2.1 -0.5
v -0.2 2.3 0.1
v -0.2 2.3 -0.5
v -0.1 1.4 -0.8
v -0.1 1.4 -1
v -0.1 1.5 -0.7
v -0.1 1.5 -0.8
v -0.1 1.6 -0.8
v -0.1 1.6 -0.9
v -0.1 1.7 -0.6
v -0.1 1.7 -0.7
v -0.1 1.7 -0.8
v -0.1 1.7 -0.9
v -0.1 1.8 -0.0999999
v -0.1 1.8 -0.5
v -0.1 1.8 -0.6
v -0.1 1.8 -0.9
v -0.1 1.8 -1
v -0.1 1.9 0.2
v -0.1 1.9 -0.0999999
v -0.1 1.9 -0.2
v -0.1 1.9 -0.4
v -0.1 1.9 -0.5
v -0.1 1.9 -0.6
v -0.1 1.9 -0.8
v -0.1 1.9 -0.9
v -0.1 2 0.1
v -0.1 2 -0.2
v -0.1 2 -0.4
v -0.1 2 -0.5
v -0.1 2 -0.6
v -0.1 2 -0.7
v -0.1 2 -0.8
v -0.1 2.1 0.3
v -0.1 2.1 0.2
v -0.1 2.1 0.1
v -0.1 2.1 -0.5
v -0.1 2.2 0.5
v -0.1 2.2 0.3
v -0.1 2.2 -0.6
v -0.1 2.2 -0.7
v -0.1 2.3 1
v -0.1 2.3 0.5
v -0.1 2.3 0.1
v -0.1 2.3 -0.5
v -0.1 2.3 -0.7
v -0.1 2.3 -0.8
v -0.1 2.4 1
v -0.1 2.4 0.9
v -0.1 2.4 0.8
v -0.1 2.4 0.1
v -0.1 2.4 -0.5
v -0.1 2.4 -0.6
v -0.1 2.4 -0.7
v -0.1 2.5 0.9
v -0.1 2.5 0.8
v -0.1 2.5 -0.7
v -0.1 2.5 -0.8
v -5.96046e-08 1.4 -0.8
v -5.96046e-08 1.4 -1
v -5.96046e-08 1.5 -0.7
v -5.96046e-08 1.5 -0.8
v -5.96046e-08 1.6 -0.8
v -5.96046e-08 1.6 -0.9
v -5.96046e-08 1.7 -0.6
v -5.96046e-08 1.7 -0.7
v -5.96046e-08 1.7 -0.8
v -5.96046e-08 1.7 -0.9
v -5.96046e-08 1.8 -0.0999999
v -5.96046e-08 1.8 -0.5
v -5.96046e-08 1.8 -0.6
v -5.96046e-08 1.8 -0.9
v -5.96046e-08 1.8 -1
v -5.96046e-08 1.9 0.2
v -5.96046e-08 1.9 -0.0999999
v -5.96046e-08 1.9 -0.2
v -5.96046e-08 1.9 -0.4
v -5.96046e-08 1.9 -0.5
v -5.96046e-08 1.9 -0.6
v -5.96046e-08 1.9 -0.8
v -5.96046e-08 1.9 -0.9
v -5.96046e-08 2 0.1
v -5.96046e-08 2 -0.2
v -5.96046e-08 2 -0.4
v -5.96046e-08 2 -0.5
v -5.96046e-08 2 -0.6
v -5.96046e-08 2 -0.7
v -5.96046e-08 2 -0.8
v -5.96046e-08 2.1 0.3
v -5.96046e-08 2.1 0.2
v -5.96046e-08 2.1 0.1
v -5.96046e-08 2.1 -0.5
v -5.96046e-08 2.2 0.5
v -5.96046e-08 2.2 0.3
v -5.96046e-08 2.2 -0.6
v -5.96046e-08 2.2 -0.7
v -5.96046e-08 2.3 1
v -5.96046e-08 2.3 0.5
v -5.96046e-08 2.3 0.1
v -5.96046e-08 2.3 -0.5
v -5.96046e-08 2.3 -0.7
v -5.96046e-08 2.3 -0.8
v -5.96046e-08 2.4 1
v -5.96046e-08 2.4 0.9
v -5.96046e-08 2.4 0.8
v -5.96046e-08 2.4 0.1
v -5.96046e-08 2.4 -0.5
v -5.96046e-08 2.4 -0.6
v -5.96046e-08 2.4 -0.7
v -5.96046e-08 2.5 0.9
v -5.96046e-08 2.5 0.8
v -5.96046e-08 2.5 -0.7
v -5.96046e-08 2.5 -0.8
v 0.0999999 2.1 0.1
v 0.0999999 2.1 -0.5
v 0.0999999 2.3 0.1
v 0.0999999 2.3 -0.5
v -0.1 2.3 1
v -0.1 2.4 1
v -5.96046e-08 2.3 1
v -5.96046e-08 2.4 1
v -0.1 2.4 0.9
v -0.1 2.5 0.9
v -5.96046e-08 2.4 0.9
v -5.96046e-08 2.5 0.9
v -0.1 2.2 0.5
v -0.1 2.3 0.5
v -5.96046e-08 2.2 0.5
v -5.96046e-08 2.3 0.5
v -0.1 2.1 0.3
v -0.1 2.2 0.3
v -5.96046e-08 2.1 0.3
v -5.96046e-08 2.2 0.3
v -0.1 1.9 0.2
v -0.1 2.1 0.2
v -5.96046e-08 1.9 0.2
v -5.96046e-08 2.1 0.2
v -0.2 2.1 0.1
v -0.2 2.3 0.1
v -0.1 2.1 0.1
v -0.1 2.3 0.1
v -5.96046e-08 2.1 0.1
v -5.96046e-08 2.3 0.1
v 0.0999999 2.1 0.1
v 0.0999999 2.3 0.1
v -0.1 1.8 -0.0999999
v -0.1 1.9 -0.0999999
v -5.96046e-08 1.8 -0.0999999
v -5.96046e-08 1.9 -0.0999999
v -0.1 1.9 -0.4
v -0.1 2 -0.4
v -5.96046e-08 1.9 -0.4
v -5.96046e-08 2 -0.4
v -0.1 1.7 -0.6
v -0.1 1.8 -0.6
v -5.96046e-08 1.7 -0.6
v -5.96046e-08 1.8 -0.6
v -0.1 1.5 -0.7
v -0.1 1.7 -0.7
v -0.1 2.4 -0.7
v -0.1 2.5 -0.7
v -5.96046e-08 1.5 -0.7
v -5.96046e-08 1.7 -0.7
v -5.96046e-08 2.4 -0.7
v -5.96046e-08 2.5 -0.7
v -0.1 1.4 -0.8
v -0.1 1.5 -0.8
v -5.96046e-08 1.4 -0.8
v -5.96046e-08 1.5 -0.8
v -0.1 2.4 0.8
v -0.1 2.5 0.8
v -5.96046e-08 2.4 0.8
v -5.96046e-08 2.5 0.8
v -0.1 1.9 -0.2
v -0.1 2 -0.2
v -5.96046e-08 1.9 -0.2
v -5.96046e-08 2 -0.2
v -0.2 2.1 -0.5
v -0.2 2.3 -0.5
v -0.1 2.1 -0.5
v -0.1 2.3 -0.5
v -5.96046e-08 2.1 -0.5
v -5.96046e-08 2.3 -0.5
v 0.0999999 2.1 -0.5
v 0.0999999 2.3 -0.5
v -0.1 2 -0.7
v -0.1 2.2 -0.7
v -0.1 2.3 -0.7
v -5.96046e-08 2 -0.7
v -5.96046e-08 2.2 -0.7
v -5.96046e-08 2.3 -0.7
v -0.1 1.9 -0.8
v -0.1 2 -0.8
v -0.1 2.3 -0.8
v -0.1 2.5 -0.8
v -5.96046e-08 1.9 -0.8
v -5.96046e-08 2 -0.8
v -5.96046e-08 2.3 -0.8
v -5.96046e-08 2.5 -0.8
v -0.1 1.8 -0.9
v -0.1 1.9 -0.9
v -5.96046e-08 1.8 -0.9
v -5.96046e-08 1.9 -0.9
v -0.1 1.4 -1
v -0.1 1.8 -1
v -5.96046e-08 1.4 -1
v -5.96046e-08 1.8 -1
v -0.1 1.4 -0.8
v -5.96046e-08 1.4 -0.8
v -0.1 1.4 -1
v -5.96046e-08 1.4 -1
v -0.1 1.5 -0.7
v -5.96046e-08 1.5 -0.7
v -0.1 1.5 -0.8
v -5.96046e-08 1.5 -0.8
v -0.1 1.7 -0.6
v -5.96046e-08 1.7 -0.6
v -0.1 1.7 -0.7
v -5.96046e-08 1.7 -0.7
v -0.1 1.8 -0.0999999
v -5.96046e-08 1.8 -0.0999999
v -0.1 1.8 -0.5
v -5.96046e-08 1.8 -0.5
v -0.1 1.8 -0.6
v -5.96046e-08 1.8 -0.6
v -0.1 1.9 0.2
v -5.96046e-08 1.9 0.2
v -0.1 1.9 -0.0999999
v -5.96046e-08 1.9 -0.0999999
v -0.1 2 -0.2
v -5.96046e-08 2 -0.2
v -0.1 2 -0.4
v -5.96046e-08 2 -0.4
v -0.1 2.1 0.3
v -5.96046e-08 2.1 0.3
v -0.1 2.1 0.2
v -5.96046e-08 2.1 0.2
v -0.2 2.1 0.1
v -0.1 2.1 0.1
v -5.96046e-08 2.1 0.1
v 0.0999999 2.1 0.1
v -0.2 2.1 -0.5
v -0.1 2.1 -0.5
v -5.96046e-08 2.1 -0.5
v 0.0999999 2.1 -0.5
v -0.1 2.2 0.5
v -5.96046e-08 2.2 0.5
v -0.1 2.2 0.3
v -5.96046e-08 2.2 0.3
v -0.1 2.3 1
v -5.96046e-08 2.3 1
v -0.1 2.3 0.5
v -5.96046e-08 2.3 0.5
v -0.1 2.3 -0.7
v -5.96046e-08 2.3 -0.7
v -0.1 2.3 -0.8
v -5.96046e-08 2.3 -0.8
v -0.1 1.8 -0.9
v -5.96046e-08 1.8 -0.9
v -0.1 1.8 -1
v -5.96046e-08 1.8 -1
v -0.1 1.9 -0.2
v -5.96046e-08 1.9 -0.2
v -0.1 1.9 -0.4
v -5.96046e-08 1.9 -0.4
v -0.1 1.9 -0.8
v -5.96046e-08 1.9 -0.8
v -0.1 1.9 -0.9
v -5.96046e-08 1.9 -0.9
v -0.1 2 -0.7
v -5.96046e-08 2 -0.7
v -0.1 2 -0.8
v -5.96046e-08 2 -0.8
v -0.2 2.3 0.1
v -0.1 2.3 0.1
v -5.96046e-08 2.3 0.1
v 0.0999999 2.3 0.1
v -0.2 2.3 -0.5
v -0.1 2.3 -0.5
v -5.96046e-08 2.3 -0.5
v 0.0999999 2.3 -0.5
v -0.1 2.4 1
v -5.96046e-08 2.4 1
v -0.1 2.4 0.9
v -5.96046e-08 2.4 0.9
v -0.1 2.4 0.8
v -5.96046e-08 2.4 0.8
v -0.1 2.4 0.1
v -5.96046e-08 2.4 0.1
v -0.1 2.4 -0.5
v -5.96046e-08 2.4 -0.5
v -0.1 2.4 -0.6
v -5.96046e-08 2.4 -0.6
v -0.1 2.4 -0.7
v -5.96046e-08 2.4 -0.7
v -0.1 2.5 0.9
v -5.96046e-08 2.5 0.9
v -0.1 2.5 0.8
v -5.96046e-08 2.5 0.8
v -0.1 2.5 -0.7
v -5.96046e-08 2.5 -0.7
v -0.1 2.5 -0.8
v -5.96046e-08 2.5 -0.8

# faces
f 3/4/1 2/4/1 1/4/1
f 4/4/1 2/4/1 3/4/1
f 8/1/1 6/1/1 5/1/1
f 9/1/1 6/1/1 8/1/1
f 9/1/1 8/1/1 7/1/1
f 10/1/1 6/1/1 9/1/1
f 12/1/1 9/1/1 7/1/1
f 13/2/1 10/2/1 9/2/1
f 13/1/1 9/1/1 12/1/1
f 14/1/1 6/1/1 10/1/1
f 14/2/1 10/2/1 13/2/1
f 17/1/1 13/1/1 12/1/1
f 17/1/1 12/1/1 11/1/1
f 17/1/1 14/1/1 13/1/1
f 18/1/1 6/1/1 14/1/1
f 18/1/1 14/1/1 17/1/1
f 19/1/1 6/1/1 18/1/1
f 21/3/1 16/3/1 15/3/1
f 22/3/1 16/3/1 21/3/1
f 23/3/1 16/3/1 22/3/1
f 24/1/1 17/1/1 16/1/1
f 24/3/1 16/3/1 23/3/1
f 24/1/1 18/1/1 17/1/1
f 25/1/1 18/1/1 24/1/1
f 26/1/1 18/1/1 25/1/1
f 27/1/1 18/1/1 26/1/1
f 28/3/1 22/3/1 21/3/1
f 28/3/1 21/3/1 20/3/1
f 29/3/1 22/3/1 28/3/1
f 30/3/1 25/3/1 24/3/1
f 30/3/1 24/3/1 23/3/1
f 31/3/1 25/3/1 30/3/1
f 32/1/1 26/1/1 25/1/1
f 32/3/1 25/3/1 31/3/1
f 33/1/1 26/1/1 32/1/1
f 34/1/1 26/1/1 33/1/1
f 36/3/1 28/3/1 20/3/1
f 37/4/1 31/4/1 30/4/1
f 37/4/1 29/4/1 28/4/1
f 37/3/1 28/3/1 36/3/1
f 37/4/1 30/4/1 29/4/1
f 38/3/1 33/3/1 32/3/1
f 38/4/1 31/4/1 37/4/1
f 38/3/1 32/3/1 31/3/1
f 40/3/1 36/3/1 35/3/1
f 40/3/1 37/3/1 36/3/1
f 41/3/1 33/3/1 38/3/1
f 42/3/1 33/3/1 41/3/1
f 44/3/1 40/3/1 39/3/1
f 45/3/1 37/3/1 40/3/1
f 45/3/1 40/3/1 44/3/1
f 46/3/1 41/3/1 38/3/1
f 47/2/1 42/2/1 41/2/1
f 49/3/1 44/3/1 43/3/1
f 49/3/1 45/3/1 44/3/1
f 50/3/1 45/3/1 49/3/1
f 51/3/1 45/3/1 50/3/1
f 52/4/1 46/4/1 45/4/1
f 52/3/1 45/3/1 51/3/1
f 53/3/1 41/3/1 46/3/1
f 53/4/1 46/4/1 52/4/1
f 54/2/1 47/2/1 41/2/1
f 54/3/1 41/3/1 53/3/1
f 54/2/1 48/2/1 47/2/1
f 55/2/1 48/2/1 54/2/1
f 56/3/1 51/3/1 50/3/1
f 57/3/1 51/3/1 56/3/1
f 58/2/1 48/2/1 55/2/1
f 59/2/1 48/2/1 58/2/1
f 60/1/2 61/1/2 63/1/2
f 63/1/2 61/1/2 64/1/2
f 62/1/2 63/1/2 64/1/2
f 64/1/2 61/1/2 65/1/2
f 62/1/2 64/1/2 67/1/2
f 64/2/2 65/2/2 68/2/2
f 67/1/2 64/1/2 68/1/2
f 65/1/2 61/1/2 69/1/2
f 68/2/2 65/2/2 69/2/2
f 67/1/2 68/1/2 72/1/2
f 66/1/2 67/1/2 72/1/2
f 68/1/2 69/1/2 72/1/2
f 69/1/2 61/1/2 73/1/2
f 72/1/2 69/1/2 73/1/2
f 73/1/2 61/1/2 74/1/2
f 70/3/2 71/3/2 76/3/2
f 76/3/2 71/3/2 77/3/2
f 77/3/2 71/3/2 78/3/2
f 71/1/2 72/1/2 79/1/2
f 78/3/2 71/3/2 79/3/2
f 72/1/2 73/1/2 79/1/2
f 79/1/2 73/1/2 80/1/2
f 80/1/2 73/1/2 81/1/2
f 81/1/2 73/1/2 82/1/2
f 76/3/2 77/3/2 83/3/2
f 75/3/2 76/3/2 83/3/2
f 83/3/2 77/3/2 84/3/2
f 79/3/2 80/3/2 85/3/2
f 78/3/2 79/3/2 85/3/2
f 85/3/2 80/3/2 86/3/2
f 80/1/2 81/1/2 87/1/2
f 86/3/2 80/3/2 87/3/2
f 87/1/2 81/1/2 88/1/2
f 88/1/2 81/1/2 89/1/2
f 75/3/2 83/3/2 91/3/2
f 85/4/2 86/4/2 92/4/2
f 83/4/2 84/4/2 92/4/2
f 91/3/2 83/3/2 92/3/2
f 84/4/2 85/4/2 92/4/2
f 87/3/2 88/3/2 93/3/2
f 92/4/2 86/4/2 93/4/2
f 86/3/2 87/3/2 93/3/2
f 90/3/2 91/3/2 95/3/2
f 91/3/2 92/3/2 95/3/2
f 93/3/2 88/3/2 96/3/2
f 96/3/2 88/3/2 97/3/2
f 94/3/2 95/3/2 99/3/2
f 95/3/2 92/3/2 100/3/2
f 99/3/2 95/3/2 100/3/2
f 93/3/2 96/3/2 101/3/2
f 96/2/2 97/2/2 102/2/2
f 98/3/2 99/3/2 104/3/2
f 99/3/2 100/3/2 104/3/2
f 104/3/2 100/3/2 105/3/2
f 105/3/2 100/3/2 106/3/2
f 100/4/2 101/4/2 107/4/2
f 106/3/2 100/3/2 107/3/2
f 101/3/2 96/3/2 108/3/2
f 107/4/2 101/4/2 108/4/2
f 96/2/2 102/2/2 109/2/2
f 108/3/2 96/3/2 109/3/2
f 102/2/2 103/2/2 109/2/2
f 109/2/2 103/2/2 110/2/2
f 105/3/2 106/3/2 111/3/2
f 111/3/2 106/3/2 112/3/2
f 110/2/2 103/2/2 113/2/2
f 113/2/2 103/2/2 114/2/2
f 115/4/2 116/4/2 117/4/2
f 117/4/2 116/4/2 118/4/2
f 121/3/3 120/3/3 119/3/3
f 122/3/3 120/3/3 121/3/3
f 125/3/3 124/3/3 123/3/3
f 126/3/3 124/3/3 125/3/3
f 129/3/3 128/3/3 127/3/3
f 130/3/3 128/3/3 129/3/3
f 133/3/3 132/3/3 131/3/3
f 134/3/3 132/3/3 133/3/3
f 137/3/3 136/3/3 135/3/3
f 138/3/3 136/3/3 137/3/3
f 141/4/3 140/4/3 139/4/3
f 142/4/3 140/4/3 141/4/3
f 145/4/3 144/4/3 143/4/3
f 146/4/3 144/4/3 145/4/3
f 149/3/3 148/3/3 147/3/3
f 150/3/3 148/3/3 149/3/3
f 153/3/3 152/3/3 151/3/3
f 154/3/3 152/3/3 153/3/3
f 157/1/3 156/1/3 155/1/3
f 158/1/3 156/1/3 157/1/3
f 163/1/3 160/1/3 159/1/3
f 164/1/3 160/1/3 163/1/3
f 165/2/3 162/2/3 161/2/3
f 166/2/3 162/2/3 165/2/3
f 169/1/3 168/1/3 167/1/3
f 170/1/3 168/1/3 169/1/3
f 171/3/4 172/3/4 173/3/4
f 173/3/4 172/3/4 174/3/4
f 175/3/4 176/3/4 177/3/4
f 177/3/4 176/3/4 178/3/4
f 179/4/4 180/4/4 181/4/4
f 181/4/4 180/4/4 182/4/4
f 183/4/4 184/4/4 185/4/4
f 185/4/4 184/4/4 186/4/4
f 187/3/4 188/3/4 190/3/4
f 188/2/4 189/2/4 191/2/4
f 190/3/4 188/3/4 191/3/4
f 191/2/4 189/2/4 192/2/4
f 193/1/4 194/1/4 197/1/4
f 197/1/4 194/1/4 198/1/4
f 195/2/4 196/2/4 199/2/4
f 199/2/4 196/2/4 200/2/4
f 201/1/4 202/1/4 203/1/4
f 203/1/4 202/1/4 204/1/4
f 205/1/4 206/1/4 207/1/4
f 207/1/4 206/1/4 208/1/4
f 211/1/5 210/1/5 209/1/5
f 212/1/5 210/1/5 211/1/5
f 215/1/5 214/1/5 213/1/5
f 216/1/5 214/1/5 215/1/5
f 219/1/5 218/1/5 217/1/5
f 220/1/5 218/1/5 219/1/5
f 223/3/5 222/3/5 221/3/5
f 224/3/5 222/3/5 223/3/5
f 225/1/5 224/1/5 223/1/5
f 226/1/5 224/1/5 225/1/5
f 229/3/5 228/3/5 227/3/5
f 230/3/5 228/3/5 229/3/5
f 233/4/5 232/4/5 231/4/5
f 234/4/5 232/4/5 233/4/5
f 237/3/5 236/3/5 235/3/5
f 238/3/5 236/3/5 237/3/5
f 243/4/5 240/4/5 239/4/5
f 244/4/5 240/4/5 243/4/5
f 245/4/5 242/4/5 241/4/5
f 246/4/5 242/4/5 245/4/5
f 249/3/5 248/3/5 247/3/5
f 250/3/5 248/3/5 249/3/5
f 253/3/5 252/3/5 251/3/5
f 254/3/5 252/3/5 253/3/5
f 257/2/5 256/2/5 255/2/5
f 258/2/5 256/2/5 257/2/5
f 259/1/6 260/1/6 261/1/6
f 261/1/6 260/1/6 262/1/6
f 263/3/6 264/3/6 265/3/6
f 265/3/6 264/3/6 266/3/6
f 267/1/6 268/1/6 269/1/6
f 269/1/6 268/1/6 270/1/6
f 271/1/6 272/1/6 273/1/6
f 273/1/6 272/1/6 274/1/6
f 275/4/6 276/4/6 279/4/6
f 279/4/6 276/4/6 280/4/6
f 277/4/6 278/4/6 281/4/6
f 281/4/6 278/4/6 282/4/6
f 283/3/6 284/3/6 285/3/6
f 285/3/6 284/3/6 286/3/6
f 287/3/6 288/3/6 289/3/6
f 289/3/6 288/3/6 290/3/6
f 289/4/6 290/4/6 291/4/6
f 291/4/6 290/4/6 292/4/6
f 291/3/6 292/3/6 293/3/6
f 293/3/6 292/3/6 294/3/6
f 293/2/6 294/2/6 295/2/6
f 295/2/6 294/2/6 296/2/6
f 297/3/6 298/3/6 299/3/6
f 299/3/6 298/3/6 300/3/6
f 301/2/6 302/2/6 303/2/6
f 303/2/6 302/2/6 304/2/6
