# MagicaVoxel @ Ephtracy

# group
o 

# material
mtllib rifle.mtl
usemtl palette

# normals
vn -1 0 0
vn 1 0 0
vn 0 0 1
vn 0 0 -1
vn 0 -1 0
vn 0 1 0

# texcoords
vt 0.271484 0.5
vt 0.927734 0.5
vt 0.939453 0.5

# verts
v -0.2 2.1 -0.0999999
v -0.2 2.1 -0.5
v -0.2 2.3 -0.0999999
v -0.2 2.3 -0.5
v -0.1 1.7 -0.6
v -0.1 1.7 -0.7
v -0.1 1.7 -1.1
v -0.1 1.7 -1.2
v -0.1 1.7 -1.5
v -0.1 1.7 -1.6
v -0.1 1.8 -0.0999999
v -0.1 1.8 -0.6
v -0.1 1.8 -0.8
v -0.1 1.8 -1.1
v -0.1 1.9 -0.2
v -0.1 1.9 -0.5
v -0.1 1.9 -0.7
v -0.1 1.9 -0.8
v -0.1 2 0.6
v -0.1 2 0.5
v -0.1 2 0.4
v -0.1 2 0.1
v -0.1 2 0
v -0.1 2 -0.0999999
v -0.1 2 -0.2
v -0.1 2 -0.5
v -0.1 2 -1.2
v -0.1 2 -1.5
v -0.1 2 -1.6
v -0.1 2.1 1.1
v -0.1 2.1 0.6
v -0.1 2.1 -0.0999999
v -0.1 2.1 -0.5
v -0.1 2.1 -0.8
v -0.1 2.1 -1.2
v -0.1 2.2 2
v -0.1 2.2 1.1
v -0.1 2.2 0.6
v -0.1 2.2 0.5
v -0.1 2.2 0.4
v -0.1 2.2 0.1
v -0.1 2.2 0
v -0.1 2.2 -0.0999999
v -0.1 2.2 -0.5
v -0.1 2.2 -0.8
v -0.1 2.3 -0.0999999
v -0.1 2.3 -0.5
v -0.1 2.4 2
v -0.1 2.4 1.8
v -0.1 2.4 1.7
v -0.1 2.4 0.5
v -0.1 2.4 0.4
v -0.1 2.4 0.1
v -0.1 2.4 0
v -0.1 2.4 -0.4
v -0.1 2.4 -0.5
v -0.1 2.4 -0.6
v -0.1 2.5 1.8
v -0.1 2.5 1.7
v -0.1 2.5 -0.4
v -0.1 2.5 -0.6
v -5.96046e-08 1.7 -0.6
v -5.96046e-08 1.7 -0.7
v -5.96046e-08 1.7 -1.1
v -5.96046e-08 1.7 -1.2
v -5.96046e-08 1.7 -1.5
v -5.96046e-08 1.7 -1.6
v -5.96046e-08 1.8 -0.0999999
v -5.96046e-08 1.8 -0.6
v -5.96046e-08 1.8 -0.8
v -5.96046e-08 1.8 -1.1
v -5.96046e-08 1.9 -0.2
v -5.96046e-08 1.9 -0.5
v -5.96046e-08 1.9 -0.7
v -5.96046e-08 1.9 -0.8
v -5.96046e-08 2 0.6
v -5.96046e-08 2 0.5
v -5.96046e-08 2 0.4
v -5.96046e-08 2 0.1
v -5.96046e-08 2 0
v -5.96046e-08 2 -0.0999999
v -5.96046e-08 2 -0.2
v -5.96046e-08 2 -0.5
v -5.96046e-08 2 -1.2
v -5.96046e-08 2 -1.5
v -5.96046e-08 2 -1.6
v -5.96046e-08 2.1 1.1
v -5.96046e-08 2.1 0.6
v -5.96046e-08 2.1 -0.0999999
v -5.96046e-08 2.1 -0.5
v -5.96046e-08 2.1 -0.8
v -5.96046e-08 2.1 -1.2
v -5.96046e-08 2.2 2
v -5.96046e-08 2.2 1.1
v -5.96046e-08 2.2 0.6
v -5.96046e-08 2.2 0.5
v -5.96046e-08 2.2 0.4
v -5.96046e-08 2.2 0.1
v -5.96046e-08 2.2 0
v -5.96046e-08 2.2 -0.0999999
v -5.96046e-08 2.2 -0.5
v -5.96046e-08 2.2 -0.8
v -5.96046e-08 2.3 -0.0999999
v -5.96046e-08 2.3 -0.5
v -5.96046e-08 2.4 2
v -5.96046e-08 2.4 1.8
v -5.96046e-08 2.4 1.7
v -5.96046e-08 2.4 0.5
v -5.96046e-08 2.4 0.4
v -5.96046e-08 2.4 0.1
v -5.96046e-08 2.4 0
v -5.96046e-08 2.4 -0.4
v -5.96046e-08 2.4 -0.5
v -5.96046e-08 2.4 -0.6
v -5.96046e-08 2.5 1.8
v -5.96046e-08 2.5 1.7
v -5.96046e-08 2.5 -0.4
v -5.96046e-08 2.5 -0.6
v 0.0999999 2.1 -0.0999999
v 0.0999999 2.1 -0.5
v 0.0999999 2.3 -0.0999999
v 0.0999999 2.3 -0.5
v -0.1 2.2 2
v -0.1 2.4 2
v -5.96046e-08 2.2 2
v -5.96046e-08 2.4 2
v -0.1 2.4 1.8
v -0.1 2.5 1.8
v -5.96046e-08 2.4 1.8
v -5.96046e-08 2.5 1.8
v -0.1 2.1 1.1
v -0.1 2.2 1.1
v -5.96046e-08 2.1 1.1
v -5.96046e-08 2.2 1.1
v -0.1 2 0.6
v -0.1 2.1 0.6
v -5.96046e-08 2 0.6
v -5.96046e-08 2.1 0.6
v -0.2 2.1 -0.0999999
v -0.2 2.3 -0.0999999
v -0.1 1.8 -0.0999999
v -0.1 2 -0.0999999
v -0.1 2.1 -0.0999999
v -0.1 2.2 -0.0999999
v -0.1 2.3 -0.0999999
v -5.96046e-08 1.8 -0.0999999
v -5.96046e-08 2 -0.0999999
v -5.96046e-08 2.1 -0.0999999
v -5.96046e-08 2.2 -0.0999999
v -5.96046e-08 2.3 -0.0999999
v 0.0999999 2.1 -0.0999999
v 0.0999999 2.3 -0.0999999
v -0.1 2.4 -0.4
v -0.1 2.5 -0.4
v -5.96046e-08 2.4 -0.4
v -5.96046e-08 2.5 -0.4
v -0.1 1.9 -0.5
v -0.1 2 -0.5
v -5.96046e-08 1.9 -0.5
v -5.96046e-08 2 -0.5
v -0.1 1.7 -0.6
v -0.1 1.8 -0.6
v -5.96046e-08 1.7 -0.6
v -5.96046e-08 1.8 -0.6
v -0.1 1.8 -0.8
v -0.1 1.9 -0.8
v -5.96046e-08 1.8 -0.8
v -5.96046e-08 1.9 -0.8
v -0.1 1.7 -1.1
v -0.1 1.8 -1.1
v -5.96046e-08 1.7 -1.1
v -5.96046e-08 1.8 -1.1
v -0.1 2.4 1.7
v -0.1 2.5 1.7
v -5.96046e-08 2.4 1.7
v -5.96046e-08 2.5 1.7
v -0.1 1.9 -0.2
v -0.1 2 -0.2
v -5.96046e-08 1.9 -0.2
v -5.96046e-08 2 -0.2
v -0.2 2.1 -0.5
v -0.2 2.3 -0.5
v -0.1 2.1 -0.5
v -0.1 2.2 -0.5
v -0.1 2.3 -0.5
v -0.1 2.4 -0.5
v -5.96046e-08 2.1 -0.5
v -5.96046e-08 2.2 -0.5
v -5.96046e-08 2.3 -0.5
v -5.96046e-08 2.4 -0.5
v 0.0999999 2.1 -0.5
v 0.0999999 2.3 -0.5
v -0.1 2.4 -0.6
v -0.1 2.5 -0.6
v -5.96046e-08 2.4 -0.6
v -5.96046e-08 2.5 -0.6
v -0.1 1.7 -0.7
v -0.1 1.9 -0.7
v -5.96046e-08 1.7 -0.7
v -5.96046e-08 1.9 -0.7
v -0.1 2.1 -0.8
v -0.1 2.2 -0.8
v -5.96046e-08 2.1 -0.8
v -5.96046e-08 2.2 -0.8
v -0.1 2 -1.2
v -0.1 2.1 -1.2
v -5.96046e-08 2 -1.2
v -5.96046e-08 2.1 -1.2
v -0.1 1.7 -1.6
v -0.1 2 -1.6
v -5.96046e-08 1.7 -1.6
v -5.96046e-08 2 -1.6
v -0.1 1.7 -0.6
v -5.96046e-08 1.7 -0.6
v -0.1 1.7 -0.7
v -5.96046e-08 1.7 -0.7
v -0.1 1.7 -1.1
v -5.96046e-08 1.7 -1.1
v -0.1 1.7 -1.2
v -5.96046e-08 1.7 -1.2
v -0.1 1.7 -1.5
v -5.96046e-08 1.7 -1.5
v -0.1 1.7 -1.6
v -5.96046e-08 1.7 -1.6
v -0.1 1.8 -0.0999999
v -5.96046e-08 1.8 -0.0999999
v -0.1 1.8 -0.6
v -5.96046e-08 1.8 -0.6
v -0.1 1.8 -0.8
v -5.96046e-08 1.8 -0.8
v -0.1 1.8 -1.1
v -5.96046e-08 1.8 -1.1
v -0.1 1.9 -0.7
v -5.96046e-08 1.9 -0.7
v -0.1 1.9 -0.8
v -5.96046e-08 1.9 -0.8
v -0.1 2 0.6
v -5.96046e-08 2 0.6
v -0.1 2 0.5
v -5.96046e-08 2 0.5
v -0.1 2 0.4
v -5.96046e-08 2 0.4
v -0.1 2 0.1
v -5.96046e-08 2 0.1
v -0.1 2 0
v -5.96046e-08 2 0
v -0.1 2 -0.0999999
v -5.96046e-08 2 -0.0999999
v -0.1 2 -0.2
v -5.96046e-08 2 -0.2
v -0.1 2 -0.5
v -5.96046e-08 2 -0.5
v -0.1 2.1 1.1
v -5.96046e-08 2.1 1.1
v -0.1 2.1 0.6
v -5.96046e-08 2.1 0.6
v -0.2 2.1 -0.0999999
v -0.1 2.1 -0.0999999
v -5.96046e-08 2.1 -0.0999999
v 0.0999999 2.1 -0.0999999
v -0.2 2.1 -0.5
v -0.1 2.1 -0.5
v -5.96046e-08 2.1 -0.5
v 0.0999999 2.1 -0.5
v -0.1 2.2 2
v -5.96046e-08 2.2 2
v -0.1 2.2 1.1
v -5.96046e-08 2.2 1.1
v -0.1 2.4 -0.5
v -5.96046e-08 2.4 -0.5
v -0.1 2.4 -0.6
v -5.96046e-08 2.4 -0.6
v -0.1 1.9 -0.2
v -5.96046e-08 1.9 -0.2
v -0.1 1.9 -0.5
v -5.96046e-08 1.9 -0.5
v -0.1 2 -1.2
v -5.96046e-08 2 -1.2
v -0.1 2 -1.5
v -5.96046e-08 2 -1.5
v -0.1 2 -1.6
v -5.96046e-08 2 -1.6
v -0.1 2.1 -0.8
v -5.96046e-08 2.1 -0.8
v -0.1 2.1 -1.2
v -5.96046e-08 2.1 -1.2
v -0.1 2.2 -0.5
v -5.96046e-08 2.2 -0.5
v -0.1 2.2 -0.8
v -5.96046e-08 2.2 -0.8
v -0.2 2.3 -0.0999999
v -0.1 2.3 -0.0999999
v -5.96046e-08 2.3 -0.0999999
v 0.0999999 2.3 -0.0999999
v -0.2 2.3 -0.5
v -0.1 2.3 -0.5
v -5.96046e-08 2.3 -0.5
v 0.0999999 2.3 -0.5
v -0.1 2.4 2
v -5.96046e-08 2.4 2
v -0.1 2.4 1.8
v -5.96046e-08 2.4 1.8
v -0.1 2.4 1.7
v -5.96046e-08 2.4 1.7
v -0.1 2.4 0.5
v -5.96046e-08 2.4 0.5
v -0.1 2.4 0.4
v -5.96046e-08 2.4 0.4
v -0.1 2.4 0.1
v -5.96046e-08 2.4 0.1
v -0.1 2.4 0
v -5.96046e-08 2.4 0
v -0.1 2.4 -0.4
v -5.96046e-08 2.4 -0.4
v -0.1 2.5 1.8
v -5.96046e-08 2.5 1.8
v -0.1 2.5 1.7
v -5.96046e-08 2.5 1.7
v -0.1 2.5 -0.4
v -5.96046e-08 2.5 -0.4
v -0.1 2.5 -0.6
v -5.96046e-08 2.5 -0.6

# faces
f 3/3/1 2/3/1 1/3/1
f 4/3/1 2/3/1 3/3/1
f 12/3/1 6/3/1 5/3/1
f 14/1/1 8/1/1 7/1/1
f 15/3/1 12/3/1 11/3/1
f 16/3/1 12/3/1 15/3/1
f 17/3/1 6/3/1 12/3/1
f 17/3/1 12/3/1 16/3/1
f 18/1/1 14/1/1 13/1/1
f 24/3/1 15/3/1 11/3/1
f 25/3/1 15/3/1 24/3/1
f 26/1/1 17/1/1 16/1/1
f 26/1/1 18/1/1 17/1/1
f 27/2/1 9/2/1 8/2/1
f 27/1/1 8/1/1 14/1/1
f 27/1/1 18/1/1 26/1/1
f 27/1/1 14/1/1 18/1/1
f 28/1/1 10/1/1 9/1/1
f 28/2/1 9/2/1 27/2/1
f 29/1/1 10/1/1 28/1/1
f 31/1/1 20/1/1 19/1/1
f 32/3/1 25/3/1 24/3/1
f 32/3/1 26/3/1 25/3/1
f 32/1/1 24/1/1 23/1/1
f 33/1/1 27/1/1 26/1/1
f 33/3/1 26/3/1 32/3/1
f 34/1/1 27/1/1 33/1/1
f 35/1/1 27/1/1 34/1/1
f 37/3/1 31/3/1 30/3/1
f 38/1/1 20/1/1 31/1/1
f 38/3/1 31/3/1 37/3/1
f 39/2/1 21/2/1 20/2/1
f 39/1/1 20/1/1 38/1/1
f 40/1/1 22/1/1 21/1/1
f 40/2/1 21/2/1 39/2/1
f 41/2/1 23/2/1 22/2/1
f 41/1/1 22/1/1 40/1/1
f 42/1/1 32/1/1 23/1/1
f 42/2/1 23/2/1 41/2/1
f 43/1/1 32/1/1 42/1/1
f 44/1/1 34/1/1 33/1/1
f 45/1/1 34/1/1 44/1/1
f 46/3/1 43/3/1 42/3/1
f 48/3/1 37/3/1 36/3/1
f 48/3/1 38/3/1 37/3/1
f 48/3/1 39/3/1 38/3/1
f 49/3/1 39/3/1 48/3/1
f 50/3/1 39/3/1 49/3/1
f 51/2/1 40/2/1 39/2/1
f 51/3/1 39/3/1 50/3/1
f 52/3/1 41/3/1 40/3/1
f 52/2/1 40/2/1 51/2/1
f 53/2/1 42/2/1 41/2/1
f 53/3/1 41/3/1 52/3/1
f 54/3/1 47/3/1 46/3/1
f 54/2/1 42/2/1 53/2/1
f 54/3/1 46/3/1 42/3/1
f 55/3/1 47/3/1 54/3/1
f 56/3/1 47/3/1 55/3/1
f 58/3/1 50/3/1 49/3/1
f 59/3/1 50/3/1 58/3/1
f 60/3/1 57/3/1 56/3/1
f 60/3/1 56/3/1 55/3/1
f 61/3/1 57/3/1 60/3/1
f 62/3/2 63/3/2 69/3/2
f 64/1/2 65/1/2 71/1/2
f 68/3/2 69/3/2 72/3/2
f 72/3/2 69/3/2 73/3/2
f 69/3/2 63/3/2 74/3/2
f 73/3/2 69/3/2 74/3/2
f 70/1/2 71/1/2 75/1/2
f 68/3/2 72/3/2 81/3/2
f 81/3/2 72/3/2 82/3/2
f 73/1/2 74/1/2 83/1/2
f 74/1/2 75/1/2 83/1/2
f 65/2/2 66/2/2 84/2/2
f 71/1/2 65/1/2 84/1/2
f 83/1/2 75/1/2 84/1/2
f 75/1/2 71/1/2 84/1/2
f 66/1/2 67/1/2 85/1/2
f 84/2/2 66/2/2 85/2/2
f 85/1/2 67/1/2 86/1/2
f 76/1/2 77/1/2 88/1/2
f 81/3/2 82/3/2 89/3/2
f 82/3/2 83/3/2 89/3/2
f 80/1/2 81/1/2 89/1/2
f 83/1/2 84/1/2 90/1/2
f 89/3/2 83/3/2 90/3/2
f 90/1/2 84/1/2 91/1/2
f 91/1/2 84/1/2 92/1/2
f 87/3/2 88/3/2 94/3/2
f 88/1/2 77/1/2 95/1/2
f 94/3/2 88/3/2 95/3/2
f 77/2/2 78/2/2 96/2/2
f 95/1/2 77/1/2 96/1/2
f 78/1/2 79/1/2 97/1/2
f 96/2/2 78/2/2 97/2/2
f 79/2/2 80/2/2 98/2/2
f 97/1/2 79/1/2 98/1/2
f 80/1/2 89/1/2 99/1/2
f 98/2/2 80/2/2 99/2/2
f 99/1/2 89/1/2 100/1/2
f 90/1/2 91/1/2 101/1/2
f 101/1/2 91/1/2 102/1/2
f 99/3/2 100/3/2 103/3/2
f 93/3/2 94/3/2 105/3/2
f 94/3/2 95/3/2 105/3/2
f 95/3/2 96/3/2 105/3/2
f 105/3/2 96/3/2 106/3/2
f 106/3/2 96/3/2 107/3/2
f 96/2/2 97/2/2 108/2/2
f 107/3/2 96/3/2 108/3/2
f 97/3/2 98/3/2 109/3/2
f 108/2/2 97/2/2 109/2/2
f 98/2/2 99/2/2 110/2/2
f 109/3/2 98/3/2 110/3/2
f 103/3/2 104/3/2 111/3/2
f 110/2/2 99/2/2 111/2/2
f 99/3/2 103/3/2 111/3/2
f 111/3/2 104/3/2 112/3/2
f 112/3/2 104/3/2 113/3/2
f 106/3/2 107/3/2 115/3/2
f 115/3/2 107/3/2 116/3/2
f 113/3/2 114/3/2 117/3/2
f 112/3/2 113/3/2 117/3/2
f 117/3/2 114/3/2 118/3/2
f 119/3/2 120/3/2 121/3/2
f 121/3/2 120/3/2 122/3/2
f 125/3/3 124/3/3 123/3/3
f 126/3/3 124/3/3 125/3/3
f 129/3/3 128/3/3 127/3/3
f 130/3/3 128/3/3 129/3/3
f 133/3/3 132/3/3 131/3/3
f 134/3/3 132/3/3 133/3/3
f 137/1/3 136/1/3 135/1/3
f 138/1/3 136/1/3 137/1/3
f 143/3/3 140/3/3 139/3/3
f 144/3/3 140/3/3 143/3/3
f 145/3/3 140/3/3 144/3/3
f 146/3/3 142/3/3 141/3/3
f 147/3/3 142/3/3 146/3/3
f 151/3/3 150/3/3 149/3/3
f 151/3/3 149/3/3 148/3/3
f 152/3/3 150/3/3 151/3/3
f 155/3/3 154/3/3 153/3/3
f 156/3/3 154/3/3 155/3/3
f 159/1/3 158/1/3 157/1/3
f 160/1/3 158/1/3 159/1/3
f 163/3/3 162/3/3 161/3/3
f 164/3/3 162/3/3 163/3/3
f 167/1/3 166/1/3 165/1/3
f 168/1/3 166/1/3 167/1/3
f 171/1/3 170/1/3 169/1/3
f 172/1/3 170/1/3 171/1/3
f 173/3/4 174/3/4 175/3/4
f 175/3/4 174/3/4 176/3/4
f 177/3/4 178/3/4 179/3/4
f 179/3/4 178/3/4 180/3/4
f 181/3/4 182/3/4 183/3/4
f 183/3/4 182/3/4 184/3/4
f 184/3/4 182/3/4 185/3/4
f 185/3/4 186/3/4 188/3/4
f 184/3/4 185/3/4 188/3/4
f 188/3/4 186/3/4 189/3/4
f 189/3/4 186/3/4 190/3/4
f 187/3/4 188/3/4 191/3/4
f 188/3/4 189/3/4 191/3/4
f 191/3/4 189/3/4 192/3/4
f 193/3/4 194/3/4 195/3/4
f 195/3/4 194/3/4 196/3/4
f 197/3/4 198/3/4 199/3/4
f 199/3/4 198/3/4 200/3/4
f 201/1/4 202/1/4 203/1/4
f 203/1/4 202/1/4 204/1/4
f 205/1/4 206/1/4 207/1/4
f 207/1/4 206/1/4 208/1/4
f 209/1/4 210/1/4 211/1/4
f 211/1/4 210/1/4 212/1/4
f 215/3/5 214/3/5 213/3/5
f 216/3/5 214/3/5 215/3/5
f 219/1/5 218/1/5 217/1/5
f 220/1/5 218/1/5 219/1/5
f 221/2/5 220/2/5 219/2/5
f 222/2/5 220/2/5 221/2/5
f 223/1/5 222/1/5 221/1/5
f 224/1/5 222/1/5 223/1/5
f 227/3/5 226/3/5 225/3/5
f 228/3/5 226/3/5 227/3/5
f 231/1/5 230/1/5 229/1/5
f 232/1/5 230/1/5 231/1/5
f 235/1/5 234/1/5 233/1/5
f 236/1/5 234/1/5 235/1/5
f 239/1/5 238/1/5 237/1/5
f 240/1/5 238/1/5 239/1/5
f 241/2/5 240/2/5 239/2/5
f 242/2/5 240/2/5 241/2/5
f 243/1/5 242/1/5 241/1/5
f 244/1/5 242/1/5 243/1/5
f 245/2/5 244/2/5 243/2/5
f 246/2/5 244/2/5 245/2/5
f 247/1/5 246/1/5 245/1/5
f 248/1/5 246/1/5 247/1/5
f 251/3/5 250/3/5 249/3/5
f 252/3/5 250/3/5 251/3/5
f 255/3/5 254/3/5 253/3/5
f 256/3/5 254/3/5 255/3/5
f 261/3/5 258/3/5 257/3/5
f 262/3/5 258/3/5 261/3/5
f 263/3/5 260/3/5 259/3/5
f 264/3/5 260/3/5 263/3/5
f 267/3/5 266/3/5 265/3/5
f 268/3/5 266/3/5 267/3/5
f 271/3/5 270/3/5 269/3/5
f 272/3/5 270/3/5 271/3/5
f 273/3/6 274/3/6 275/3/6
f 275/3/6 274/3/6 276/3/6
f 277/2/6 278/2/6 279/2/6
f 279/2/6 278/2/6 280/2/6
f 279/1/6 280/1/6 281/1/6
f 281/1/6 280/1/6 282/1/6
f 283/1/6 284/1/6 285/1/6
f 285/1/6 284/1/6 286/1/6
f 287/1/6 288/1/6 289/1/6
f 289/1/6 288/1/6 290/1/6
f 291/3/6 292/3/6 295/3/6
f 295/3/6 292/3/6 296/3/6
f 293/3/6 294/3/6 297/3/6
f 297/3/6 294/3/6 298/3/6
f 299/3/6 300/3/6 301/3/6
f 301/3/6 300/3/6 302/3/6
f 303/3/6 304/3/6 305/3/6
f 305/3/6 304/3/6 306/3/6
f 305/2/6 306/2/6 307/2/6
f 307/2/6 306/2/6 308/2/6
f 307/3/6 308/3/6 309/3/6
f 309/3/6 308/3/6 310/3/6
f 309/2/6 310/2/6 311/2/6
f 311/2/6 310/2/6 312/2/6
f 311/3/6 312/3/6 313/3/6
f 313/3/6 312/3/6 314/3/6
f 315/3/6 316/3/6 317/3/6
f 317/3/6 316/3/6 318/3/6
f 319/3/6 320/3/6 321/3/6
f 321/3/6 320/3/6 322/3/6
